<svg width="1601" height="899" viewBox="0 0 1601 899" fill="none" xmlns="http://www.w3.org/2000/svg">
<line x1="267.166" y1="1" x2="267.166" y2="899" stroke="white" stroke-opacity="0.2"/>
<line x1="533.834" y1="1" x2="533.834" y2="899" stroke="white" stroke-opacity="0.2"/>
<line x1="800.5" y1="1" x2="800.5" y2="899" stroke="white" stroke-opacity="0.2"/>
<line x1="1067.17" y1="1" x2="1067.17" y2="899" stroke="white" stroke-opacity="0.2"/>
<line x1="1333.83" y1="1" x2="1333.83" y2="899" stroke="white" stroke-opacity="0.2"/>
<line x1="1600.5" y1="1" x2="1600.5" y2="899" stroke="white" stroke-opacity="0.2"/>
<line x1="0.5" y1="1" x2="0.499961" y2="899" stroke="white" stroke-opacity="0.2"/>
<line x1="4.09745e-08" y1="640.576" x2="1595.02" y2="640.576" stroke="white" stroke-opacity="0.2"/>
<line x1="4.10883e-08" y1="512.561" x2="1595.02" y2="512.561" stroke="white" stroke-opacity="0.2"/>
<line x1="4.10883e-08" y1="384.546" x2="1595.02" y2="384.546" stroke="white" stroke-opacity="0.2"/>
<line x1="4.10883e-08" y1="256.53" x2="1595.02" y2="256.53" stroke="white" stroke-opacity="0.2"/>
<line x1="4.09745e-08" y1="128.516" x2="1595.02" y2="128.516" stroke="white" stroke-opacity="0.2"/>
<line x1="4.09745e-08" y1="0.5" x2="1595.02" y2="0.500037" stroke="white" stroke-opacity="0.2"/>
<line x1="2.18556e-08" y1="768.591" x2="1595.02" y2="768.591" stroke="white" stroke-opacity="0.2"/>
</svg>
