<svg width="560" height="560" viewBox="0 0 560 560" fill="none" xmlns="http://www.w3.org/2000/svg">
<g clip-path="url(#clip0_605_2)">
<path d="M280 560C434.64 560 560 434.64 560 280C560 125.36 434.64 0 280 0C125.36 0 0 125.36 0 280C0 434.64 125.36 560 280 560Z" fill="white"/>
<path fill-rule="evenodd" clip-rule="evenodd" d="M241.237 296.24L212.363 326.41C207.165 331.835 202.072 337.313 196.857 342.703C195.982 343.613 194.74 344.155 193.673 344.873C191.398 344.505 189.647 343.088 189.35 341.023C188.867 337.88 188.435 334.729 188.055 331.573C187.53 327.408 186.253 326.253 182.035 325.728C173.338 324.678 164.657 323.54 155.96 322.403L136.115 319.83C132.16 319.305 130.725 316.47 132.79 313.093C137.55 305.428 142.345 297.798 147.122 290.168L176.347 243.478C177.502 241.588 178.798 240.293 181.283 240.363C182.858 240.398 184.502 240.013 186.06 239.61C187.915 239.155 189.368 239.715 190.663 240.94C192.955 243.093 195.282 245.228 197.557 247.398L223.947 272.44C229.635 277.83 235.375 283.185 241.062 288.575C244.002 291.34 244.002 293.335 241.237 296.24V296.24ZM435.312 336.823C436.957 338.188 438.742 339.483 439.092 341.81C439.53 344.785 438.34 346.938 435.82 348.565C420.945 358.19 406.07 367.868 391.195 377.51L362.443 396.148C361.536 396.722 360.67 397.359 359.852 398.055C359.128 398.65 358.553 399.406 358.173 400.263C357.793 401.12 357.619 402.054 357.665 402.99C357.805 406.578 358.015 410.165 358.068 413.735C358.12 417.848 355.093 420.42 350.963 419.948C349.475 419.751 348.123 418.978 347.2 417.795C343.741 413.804 340.288 409.808 336.84 405.808C332.517 400.803 328.212 395.763 323.872 390.775C322.979 389.882 322.301 388.797 321.892 387.602C321.482 386.406 321.352 385.133 321.51 383.88L322.105 362.968C322.175 360.518 323.627 358.943 325.587 357.683L349.352 342.493C362.652 334.005 375.988 325.553 389.253 316.978C392.053 315.175 394.66 314.633 397.74 316.208C400.015 317.363 402.587 317.573 405.055 316.803C408.747 315.63 411.582 316.663 414.435 319.183C421.26 325.203 428.347 330.943 435.33 336.823H435.312ZM307.597 354.183C308.678 355.238 309.447 356.57 309.82 358.033C310.468 361.305 309.172 363.528 306.092 365.015C295.855 369.95 285.635 374.938 275.31 379.715C273.455 380.555 271.127 380.66 269.01 380.765C260.452 381.15 251.895 381.378 243.337 381.728C238.28 381.92 233.24 382.235 228.585 382.48H225.155C224.379 382.499 223.607 382.362 222.886 382.076C222.164 381.791 221.507 381.363 220.955 380.818C219.87 379.82 218.75 378.858 217.683 377.843C211.663 372.12 205.748 366.293 199.605 360.693C196.175 357.578 196.123 353.395 199.395 350.053C206.763 342.458 214.043 334.793 221.358 327.128C229.25 318.868 237.143 310.573 245.018 302.278C245.615 301.574 246.35 301.001 247.178 300.593C248.005 300.185 248.907 299.951 249.829 299.905C250.751 299.859 251.672 300.002 252.536 300.326C253.4 300.65 254.188 301.147 254.852 301.788L286.353 333.095C293.423 340.13 300.562 347.095 307.597 354.183V354.183ZM350.963 213.325C347.585 208.11 351.4 200.9 357.017 199.973C372.032 197.47 386.995 194.6 401.993 191.993C405.3 191.415 407.925 192.938 409.745 195.668C412.895 200.393 415.992 205.135 419.107 209.878C425.687 219.853 432.285 229.828 438.795 239.838C439.67 241.185 440.108 242.813 440.755 244.3L440.37 244.475C440.263 247.03 439.315 249.478 437.675 251.44C428.505 263.76 419.23 276.028 410.078 288.365C409.214 289.46 408.096 290.327 406.822 290.893C405.547 291.458 404.154 291.704 402.762 291.609C401.371 291.514 400.024 291.081 398.838 290.348C397.652 289.616 396.662 288.604 395.955 287.403C382.567 265.178 369.04 243.023 355.565 220.85C354.043 218.33 352.555 215.775 350.963 213.325ZM324.625 275.135L322 298.498C321.265 304.973 320.477 311.413 319.742 317.888L317.152 340.638C316.977 342.23 316.96 343.858 316.628 345.398C316.453 346.15 315.892 347.113 315.262 347.358C314.632 347.603 313.512 347.253 312.952 346.78C310.467 344.628 308.105 342.353 305.725 340.095C297.15 331.975 288.628 323.838 280.053 315.753C272.598 308.7 265.125 301.7 257.635 294.7C255.15 292.39 255.132 291.655 257.53 289.153L291.795 253.278L315.192 228.708L326.672 216.633C327.005 216.283 327.285 215.81 327.688 215.67C328.51 215.373 329.525 214.97 330.243 215.198C330.838 215.408 331.117 216.475 331.292 216.773L329.542 232.173L327.285 251.965L324.625 275.135V275.135ZM391.23 292.985C392.35 294.788 392.525 296.503 391.3 298.375C389.964 300.476 389.396 302.973 389.69 305.445C389.9 307.65 388.99 308.998 387.118 310.17C372.47 319.463 357.893 328.825 343.298 338.17C338.713 341.11 334.127 344.033 329.525 346.938C327.705 348.093 325.833 348.005 324.835 346.535C324.275 345.73 324.205 344.61 324.048 344.05L325.973 329.91L330.26 298.725L334.985 264.6L339.588 231.228L341.337 218.803C341.372 218.47 341.39 218.085 341.565 217.84C342.02 217.263 342.528 216.405 343.105 216.3C343.735 216.195 344.715 216.685 345.118 217.228C346.185 218.663 347.043 220.255 347.988 221.795L382.2 278.075C385.21 283.045 388.185 288.033 391.23 292.968V292.985ZM320.302 207.165C320.845 207.515 321.895 207.883 322.455 208.635C323.313 209.79 322.56 210.875 321.668 211.803L309.768 224.315L275.082 260.61C267.837 268.223 260.628 275.87 253.383 283.465C250.758 286.195 248.658 286.195 245.928 283.605C237.475 275.59 229.022 267.54 220.552 259.543C212.327 251.773 204.068 244.02 195.808 236.268C194.705 235.218 193.83 234.08 193.953 232.47C194.128 230.283 195.387 229.04 197.89 228.62C202.457 227.798 207.043 226.993 211.628 226.205L255.64 218.505L307.615 209.388L320.302 207.165V207.165ZM202.37 218.225C210.525 212.643 218.68 207.095 226.853 201.548L305.777 147.788C308.402 146.003 310.065 146.37 311.377 149.205C316.82 160.86 322.227 172.533 327.652 184.205C328.352 185.71 329.017 187.233 329.735 188.755C330.312 189.98 329.928 190.978 329.193 192.08C328.237 193.431 327.427 194.88 326.778 196.403C326.2 197.855 325.325 198.643 323.75 198.923C312.13 200.988 300.528 203.123 288.925 205.188L247.73 212.59L202.755 220.675C202.125 220.78 201.477 220.675 200.83 220.675L200.445 219.958C201.093 219.38 201.67 218.715 202.37 218.225V218.225ZM120.295 244.93C115.15 244.825 112.088 239.82 114.555 235.218C116.638 231.333 118.948 227.588 121.188 223.79C127.628 212.783 134.103 201.81 140.508 190.803C141.553 189.005 143.064 187.524 144.883 186.515C161.963 176.698 179.007 166.828 196.087 156.993C197.172 156.329 198.361 155.856 199.605 155.593C200.771 155.362 201.979 155.478 203.079 155.926C204.18 156.374 205.126 157.134 205.8 158.113C206.546 159.069 206.998 160.22 207.104 161.428C207.21 162.636 206.963 163.849 206.395 164.92C203.822 170.415 201.145 175.858 198.52 181.318C193.62 191.328 188.72 201.32 183.872 211.348C183.413 212.456 182.698 213.44 181.786 214.218C180.873 214.997 179.789 215.548 178.622 215.828C176.452 216.345 174.466 217.453 172.885 219.028C171.304 220.602 170.189 222.584 169.662 224.753C169.397 225.823 168.854 226.806 168.09 227.601C167.325 228.397 166.365 228.977 165.305 229.285C151.27 234.22 137.252 239.26 123.235 244.248C122.29 244.598 121.293 244.703 120.312 244.948L120.295 244.93ZM192.973 212.975C193.042 212.245 193.244 211.533 193.567 210.875L211.908 170.678C215.723 162.313 219.59 153.965 223.352 145.583C224.227 143.658 225.505 142.695 227.675 142.608C233.398 142.433 239.12 142.135 244.843 141.908L278.617 140.63C282.572 140.455 286.545 140.193 290.517 140C293.352 139.878 295.295 141.593 295.312 144.375C295.435 146.073 294.35 147.175 292.95 148.138L282.135 155.505L217.49 199.483L196.84 213.553C196.358 213.917 195.843 214.233 195.3 214.498C194.075 215.023 192.903 214.288 192.973 212.975V212.975ZM169.12 241.85C166.267 246.453 163.38 251.02 160.51 255.605C149.782 272.755 139.055 289.923 128.31 307.055C127.867 307.876 127.273 308.606 126.56 309.208C124.705 310.538 122.237 309.61 121.362 307.283C119.962 303.538 118.633 299.758 117.285 295.995L105.577 263.06C105.297 262.238 105.105 261.398 105 260.995C105.018 258.773 105.753 257.828 107.835 257.145C114.065 255.133 120.295 253.155 126.525 251.178L161.787 239.978L166.425 238.543C167.528 238.193 168.63 237.72 169.54 238.945C170.362 240.048 169.68 240.958 169.12 241.85V241.85ZM451.185 287.508L454.72 307.738C454.825 308.385 454.895 309.05 455 309.908C454.825 310.783 454.632 311.833 454.352 312.848L449.715 329.578C448.385 334.39 444.57 335.528 440.72 332.273C432.828 325.623 424.9 318.973 416.972 312.358C415.17 310.853 414.417 309.12 414.837 306.74C415.351 304.37 415.068 301.897 414.033 299.705C412.948 297.553 413.297 295.645 414.715 293.755C421.19 285.075 427.613 276.36 434.07 267.68L438.007 262.36C439.32 260.558 441.053 259.683 443.258 260.173C445.568 260.698 446.758 262.273 447.143 264.53L451.168 287.508H451.185ZM318.815 148.488L318.465 147.753C317.992 146.703 317.8 145.478 318.868 144.883C319.804 144.463 320.863 144.4 321.843 144.708C323.383 145.18 324.765 146.055 326.218 146.773L385.053 176.155L395.5 181.405C396.673 181.983 397.6 182.665 397.355 184.135C397.11 185.588 396.007 185.903 394.73 186.13C380.59 188.65 366.468 191.205 352.345 193.743L350.963 194.023C350.56 193.76 349.79 193.463 349.3 192.903C348.042 191.32 346.457 190.027 344.654 189.112C342.852 188.197 340.873 187.681 338.853 187.6C337.278 187.53 336.473 186.603 335.878 185.29C333.393 179.9 330.855 174.545 328.353 169.173L318.815 148.488V148.488Z" fill="#1E3A8A"/>
</g>
<defs>
<clipPath id="clip0_605_2">
<rect width="560" height="560" fill="white"/>
</clipPath>
</defs>
</svg>
